<?xml version="1.0" encoding="UTF-8" standalone="no"?>
<svg width="256px" height="256px" viewBox="0 0 256 256" version="1.1" xmlns="http://www.w3.org/2000/svg" xmlns:xlink="http://www.w3.org/1999/xlink" xmlns:sketch="http://www.bohemiancoding.com/sketch/ns">
    <!-- Generator: Sketch 3.0.1 (7597) - http://www.bohemiancoding.com/sketch -->
    <title>ng-nebraska sqaure 3</title>
    <description>Created with Sketch.</description>
    <defs></defs>
    <g id="Page-1" stroke="none" stroke-width="1" fill="none" fill-rule="evenodd" sketch:type="MSPage">
        <g id="ng-nebraska-sqaure-3" sketch:type="MSArtboardGroup">
            <path d="M23,52.5857752 L39.538443,192.513354 L127.774694,242 L216.46662,191.841718 L233,51.9205974 L127.663307,15 L23,52.5857752 Z" id="sheild-2" fill="#D0011B" sketch:type="MSShapeGroup"></path>
            <path d="M127.774694,242 L216.46662,191.841718 L233,51.9205974 L127.663307,15 L127.774694,242 Z" id="sheild-3" fill-opacity="0.15" fill="#000000" sketch:type="MSShapeGroup"></path>
            <g id="ngne" sketch:type="MSLayerGroup" transform="translate(52.000000, 100.000000)" fill="#FFFFFF">
                <path d="M25.0448143,42 L25.0448143,17.2632067 C25.0448143,15.0339709 24.9423826,13.1720804 24.737516,11.6774791 C24.5326494,10.1828779 24.1741383,8.99228123 23.6619718,8.10565338 C23.1498054,7.21902553 22.4519891,6.59206239 21.5685019,6.22474513 C20.6850148,5.85742788 19.5774714,5.67377201 18.2458387,5.67377201 C16.4788644,5.67377201 14.4302293,6.326067 12.099872,7.63067655 C9.7695146,8.9352861 7.38797631,10.74018 4.95518566,13.0454124 L4.95518566,42 L0,42 L0,2.13994439 L4.95518566,2.13994439 L4.95518566,8.4476367 C6.10756018,7.35835106 7.2663194,6.35774321 8.43149808,5.44578313 C9.59667676,4.53382306 10.7746419,3.74853589 11.9654289,3.08989805 C13.1562159,2.43126022 14.3533871,1.91829038 15.5569782,1.55097312 C16.7605694,1.18365587 17.9769465,1 19.206146,1 C21.3572451,1 23.1241928,1.31664805 24.5070423,1.94995366 C25.8898917,2.58325927 26.991033,3.51420455 27.8104994,4.74281742 C28.6299657,5.9714303 29.1997423,7.47867504 29.5198464,9.26459685 C29.8399504,11.0505187 30,13.0960651 30,15.4012975 L30,42 L25.0448143,42 Z M67,41.119403 C67,43.9308146 66.6952411,46.3432735 66.0857143,48.3568521 C65.4761874,50.3704307 64.5428634,52.0167281 63.2857143,53.2957938 C62.0285651,54.5748594 60.4349303,55.5119826 58.5047619,56.1071913 C56.5745935,56.7024001 54.2762038,57 51.6095238,57 C48.3841109,57 45.590488,56.6264171 43.2285714,55.8792402 C40.8666549,55.1320632 38.9873086,54.2139358 37.5904762,53.1248304 L39.6857143,49.3256445 C40.9809589,50.3894219 42.6063394,51.2505621 44.5619048,51.9090909 C46.5174701,52.5676198 48.866653,52.8968792 51.6095238,52.8968792 C53.5142952,52.8968792 55.1269775,52.6815942 56.447619,52.2510176 C57.7682606,51.8204411 58.8476149,51.1429264 59.6857143,50.2184532 C60.5238137,49.29398 61.1333314,48.1035803 61.5142857,46.6472185 C61.89524,45.1908566 62.0857143,43.4369166 62.0857143,41.385346 L62.0857143,36.5603799 C61.3238057,37.2948929 60.4793697,37.9914033 59.552381,38.6499322 C58.6253922,39.308461 57.6349259,39.8846651 56.5809524,40.3785617 C55.5269789,40.8724584 54.4285771,41.265037 53.2857143,41.5563094 C52.1428514,41.8475817 50.9619109,41.9932157 49.7428571,41.9932157 C47.177765,41.9932157 44.9682632,41.537318 43.1142857,40.6255088 C41.2603082,39.7136996 39.7365139,38.3903298 38.5428571,36.6553596 C37.3492004,34.9203893 36.4603204,32.7928665 35.8761905,30.2727273 C35.2920606,27.752588 35,24.8842314 35,21.6675712 C35,18.7801755 35.3047589,16.0827805 35.9142857,13.5753053 C36.5238126,11.0678301 37.4698349,8.88332003 38.752381,7.02170963 C40.034927,5.16009924 41.6603076,3.69109539 43.6285714,2.614654 C45.5968352,1.53821262 47.9523672,1 50.6952381,1 C52.8031851,1 54.8095143,1.41157436 56.7142857,2.23473541 C58.6190571,3.05789647 60.4095154,4.1786451 62.0857143,5.59701493 L62.0857143,2.13975577 L67,2.13975577 L67,41.119403 Z M62,9.8415493 C60.1476263,8.36971095 58.3269986,7.19484007 56.5380623,6.31690141 C54.749126,5.43896275 52.9031237,5 51,5 C49.0715013,5 47.4158085,5.40023074 46.032872,6.20070423 C44.6499354,7.00117771 43.5080783,8.13086125 42.6072664,9.58978873 C41.7064546,11.0487162 41.0467149,12.7916565 40.6280277,14.818662 C40.2093405,16.8456674 40,19.0727578 40,21.5 C40,23.5399163 40.1141857,25.5475253 40.3425606,27.5228873 C40.5709354,29.4982493 41.0530528,31.2605556 41.7889273,32.8098592 C42.5248018,34.3591627 43.5778478,35.6114976 44.9480969,36.5669014 C46.318346,37.5223052 48.13263,38 50.3910035,38 C51.5582527,38 52.6810788,37.825706 53.7595156,37.4771127 C54.8379523,37.1285194 55.8656237,36.6701906 56.8425606,36.1021127 C57.8194974,35.5340347 58.7393267,34.8949566 59.6020761,34.1848592 C60.4648255,33.4747617 61.2641255,32.7711302 62,32.0739437 L62,9.8415493 Z" id="ng-2" sketch:type="MSShapeGroup"></path>
                <path d="M109.712018,42 L109.712018,18.7228916 C109.712018,16.6987851 109.647771,14.9796178 109.519274,13.5653383 C109.390778,12.1510587 109.114515,11.0027848 108.690476,10.1204819 C108.266438,9.23817909 107.668938,8.60241158 106.897959,8.21316033 C106.12698,7.82390908 105.099024,7.62928638 103.814059,7.62928638 C102.965982,7.62928638 102.060096,7.79795939 101.096372,8.13531047 C100.132648,8.47266156 99.1560896,8.93326863 98.1666667,9.51714551 C97.1772437,10.1010224 96.1814109,10.7757144 95.1791383,11.5412419 C94.1768657,12.3067694 93.2131566,13.1047224 92.2879819,13.9351251 L92.2879819,42 L84,42 L84,1.16774791 L92.2879819,1.16774791 L92.2879819,6.85078777 C93.161758,5.96848493 94.1383166,5.11214502 95.2176871,4.28174235 C96.2970576,3.45133968 97.4342344,2.71826082 98.6292517,2.08248378 C99.824269,1.44670674 101.057817,0.940687702 102.329932,0.564411492 C103.602047,0.188135283 104.880568,0 106.165533,0 C108.427071,0 110.315941,0.324371177 111.8322,0.973123262 C113.348458,1.62187535 114.562732,2.57552661 115.475057,3.83410565 C116.387382,5.0926847 117.036279,6.6366915 117.421769,8.46617238 C117.807258,10.2956533 118,12.3910911 118,14.7525487 L118,42 L109.712018,42 L109.712018,42 Z" id="Path-6" sketch:type="MSShapeGroup"></path>
                <path d="M129.519737,23.2432432 C129.545322,25.2834937 129.756394,27.084827 130.152961,28.6472973 C130.549527,30.2097676 131.169952,31.5139587 132.014254,32.5599099 C132.858557,33.6058611 133.952296,34.3999973 135.295504,34.9423423 C136.638713,35.4846874 138.295312,35.7558559 140.265351,35.7558559 C142.107465,35.7558559 143.73848,35.4394927 145.158443,34.8067568 C146.578406,34.1740209 147.889614,33.0958034 149.092105,31.5720721 L155.424342,35.9108108 C154.656794,37.0729788 153.799712,38.0930887 152.85307,38.9711712 C151.906428,39.8492536 150.806293,40.5852823 149.552632,41.1792793 C148.29897,41.7732762 146.872632,42.2252237 145.273575,42.5351351 C143.674517,42.8450466 141.851618,43 139.804825,43 C133.383009,43 128.643473,41.2115794 125.586075,37.6346847 C122.528676,34.0577899 121,28.7829177 121,21.8099099 C121,18.5300136 121.326203,15.553617 121.978618,12.8806306 C122.631034,10.2076443 123.68,7.91562517 125.125548,6.0045045 C126.571096,4.09338384 128.457956,2.61487009 130.786184,1.56891892 C133.114412,0.522967743 135.967088,0 139.344298,0 C142.337734,0 144.889792,0.451947432 147.000548,1.35585586 C149.111304,2.25976428 150.831865,3.53812987 152.162281,5.19099099 C153.492697,6.84385211 154.464909,8.83242081 155.078947,11.1567568 C155.692986,13.4810927 156,16.0507367 156,18.8657658 L156,23.2432432 L129.519737,23.2432432 L129.519737,23.2432432 Z M147,17 C147,13.7412772 146.302333,11.2599588 144.906977,9.55597015 C143.511621,7.85198153 141.31714,7 138.323467,7 C136.801261,7 135.501062,7.21765951 134.422833,7.65298507 C133.344603,8.08831063 132.443978,8.72885149 131.72093,9.57462687 C130.997882,10.4204022 130.420721,11.4651679 129.989429,12.7089552 C129.558137,13.9527425 129.228331,15.3830765 129,17 L147,17 L147,17 Z" id="Path-4" sketch:type="MSShapeGroup"></path>
            </g>
        </g>
    </g>
</svg>